<mxfile host="app.diagrams.net" agent="Mozilla/5.0 (Windows NT 10.0; Win64; x64) AppleWebKit/537.36 (KHTML, like Gecko) Chrome/129.0.0.0 Safari/537.36" version="24.7.17">
  <diagram name="PÃ¡gina-1" id="CdIYwh4xgwnYPtIZ2PtQ">
    <mxGraphModel dx="1434" dy="756" grid="1" gridSize="10" guides="1" tooltips="1" connect="1" arrows="1" fold="1" page="1" pageScale="1" pageWidth="827" pageHeight="1169" background="#ffffff" math="0" shadow="0">
      <root>
        <mxCell id="0" />
        <mxCell id="1" parent="0" />
        <mxCell id="O8jnHQKfrFCiN4XsaCBv-1" value="&lt;b&gt;&lt;font style=&quot;font-size: 16px;&quot;&gt;INICIO&lt;/font&gt;&lt;/b&gt;" style="ellipse;whiteSpace=wrap;html=1;" vertex="1" parent="1">
          <mxGeometry x="315" y="40" width="150" height="50" as="geometry" />
        </mxCell>
        <mxCell id="O8jnHQKfrFCiN4XsaCBv-2" value="&lt;font style=&quot;font-size: 16px;&quot;&gt;&lt;b&gt;FIN&lt;/b&gt;&lt;/font&gt;" style="ellipse;whiteSpace=wrap;html=1;" vertex="1" parent="1">
          <mxGeometry x="545" y="410" width="150" height="50" as="geometry" />
        </mxCell>
        <mxCell id="O8jnHQKfrFCiN4XsaCBv-3" value="&lt;font style=&quot;font-size: 16px;&quot;&gt;&lt;b&gt;Declarar i = 1&lt;/b&gt;&lt;/font&gt;&lt;div style=&quot;font-size: 16px;&quot;&gt;&lt;font style=&quot;font-size: 16px;&quot;&gt;&lt;b&gt;Declarar Result = 0&lt;/b&gt;&lt;/font&gt;&lt;/div&gt;" style="rounded=0;whiteSpace=wrap;html=1;" vertex="1" parent="1">
          <mxGeometry x="315" y="150" width="150" height="60" as="geometry" />
        </mxCell>
        <mxCell id="O8jnHQKfrFCiN4XsaCBv-4" value="&lt;b&gt;&lt;font style=&quot;font-size: 16px;&quot;&gt;i &amp;lt;= 5&lt;/font&gt;&lt;/b&gt;" style="rhombus;whiteSpace=wrap;html=1;" vertex="1" parent="1">
          <mxGeometry x="350" y="270" width="80" height="80" as="geometry" />
        </mxCell>
        <mxCell id="O8jnHQKfrFCiN4XsaCBv-5" value="&lt;span style=&quot;font-size: 16px;&quot;&gt;&lt;font style=&quot;font-size: 16px;&quot;&gt;&lt;b&gt;result += i&lt;/b&gt;&lt;/font&gt;&lt;/span&gt;&lt;div style=&quot;font-size: 16px;&quot;&gt;&lt;font style=&quot;font-size: 16px;&quot;&gt;&lt;b&gt;i++&lt;/b&gt;&lt;/font&gt;&lt;/div&gt;" style="rounded=0;whiteSpace=wrap;html=1;" vertex="1" parent="1">
          <mxGeometry x="330" y="420" width="120" height="60" as="geometry" />
        </mxCell>
        <mxCell id="O8jnHQKfrFCiN4XsaCBv-6" value="&lt;font style=&quot;font-size: 16px;&quot;&gt;&lt;b&gt;Mostrar Result&lt;/b&gt;&lt;/font&gt;" style="shape=parallelogram;perimeter=parallelogramPerimeter;whiteSpace=wrap;html=1;fixedSize=1;" vertex="1" parent="1">
          <mxGeometry x="560" y="280" width="150" height="60" as="geometry" />
        </mxCell>
        <mxCell id="O8jnHQKfrFCiN4XsaCBv-12" value="" style="endArrow=classic;html=1;rounded=0;exitX=0.5;exitY=1;exitDx=0;exitDy=0;entryX=0.5;entryY=0;entryDx=0;entryDy=0;" edge="1" parent="1" source="O8jnHQKfrFCiN4XsaCBv-1" target="O8jnHQKfrFCiN4XsaCBv-3">
          <mxGeometry width="50" height="50" relative="1" as="geometry">
            <mxPoint x="390" y="410" as="sourcePoint" />
            <mxPoint x="440" y="360" as="targetPoint" />
          </mxGeometry>
        </mxCell>
        <mxCell id="O8jnHQKfrFCiN4XsaCBv-13" value="" style="endArrow=classic;html=1;rounded=0;entryX=0.5;entryY=0;entryDx=0;entryDy=0;" edge="1" parent="1" target="O8jnHQKfrFCiN4XsaCBv-4">
          <mxGeometry width="50" height="50" relative="1" as="geometry">
            <mxPoint x="390" y="210" as="sourcePoint" />
            <mxPoint x="400" y="160" as="targetPoint" />
          </mxGeometry>
        </mxCell>
        <mxCell id="O8jnHQKfrFCiN4XsaCBv-14" value="" style="endArrow=classic;html=1;rounded=0;entryX=0.5;entryY=0;entryDx=0;entryDy=0;" edge="1" parent="1" target="O8jnHQKfrFCiN4XsaCBv-5">
          <mxGeometry width="50" height="50" relative="1" as="geometry">
            <mxPoint x="390" y="350" as="sourcePoint" />
            <mxPoint x="400" y="280" as="targetPoint" />
          </mxGeometry>
        </mxCell>
        <mxCell id="O8jnHQKfrFCiN4XsaCBv-15" value="" style="endArrow=classic;html=1;rounded=0;entryX=0;entryY=0.5;entryDx=0;entryDy=0;exitX=0;exitY=0.5;exitDx=0;exitDy=0;" edge="1" parent="1" source="O8jnHQKfrFCiN4XsaCBv-5" target="O8jnHQKfrFCiN4XsaCBv-4">
          <mxGeometry width="50" height="50" relative="1" as="geometry">
            <mxPoint x="400" y="360" as="sourcePoint" />
            <mxPoint x="400" y="430" as="targetPoint" />
            <Array as="points">
              <mxPoint x="200" y="450" />
              <mxPoint x="200" y="310" />
            </Array>
          </mxGeometry>
        </mxCell>
        <mxCell id="O8jnHQKfrFCiN4XsaCBv-17" value="" style="endArrow=classic;html=1;rounded=0;entryX=0.5;entryY=0;entryDx=0;entryDy=0;" edge="1" parent="1" target="O8jnHQKfrFCiN4XsaCBv-2">
          <mxGeometry width="50" height="50" relative="1" as="geometry">
            <mxPoint x="619.5" y="340" as="sourcePoint" />
            <mxPoint x="619.5" y="410" as="targetPoint" />
          </mxGeometry>
        </mxCell>
        <mxCell id="O8jnHQKfrFCiN4XsaCBv-18" value="" style="endArrow=classic;html=1;rounded=0;entryX=0;entryY=0.5;entryDx=0;entryDy=0;exitX=1;exitY=0.5;exitDx=0;exitDy=0;" edge="1" parent="1" source="O8jnHQKfrFCiN4XsaCBv-4" target="O8jnHQKfrFCiN4XsaCBv-6">
          <mxGeometry width="50" height="50" relative="1" as="geometry">
            <mxPoint x="629.5" y="350" as="sourcePoint" />
            <mxPoint x="629.5" y="420" as="targetPoint" />
          </mxGeometry>
        </mxCell>
        <mxCell id="O8jnHQKfrFCiN4XsaCBv-20" value="&lt;b&gt;&lt;font style=&quot;font-size: 16px;&quot;&gt;NO&lt;/font&gt;&lt;/b&gt;" style="text;html=1;align=center;verticalAlign=middle;resizable=0;points=[];autosize=1;strokeColor=none;fillColor=none;" vertex="1" parent="1">
          <mxGeometry x="465" y="270" width="50" height="30" as="geometry" />
        </mxCell>
        <mxCell id="O8jnHQKfrFCiN4XsaCBv-21" value="&lt;b&gt;&lt;font style=&quot;font-size: 16px;&quot;&gt;SI&lt;/font&gt;&lt;/b&gt;" style="text;html=1;align=center;verticalAlign=middle;resizable=0;points=[];autosize=1;strokeColor=none;fillColor=none;" vertex="1" parent="1">
          <mxGeometry x="405" y="360" width="40" height="30" as="geometry" />
        </mxCell>
      </root>
    </mxGraphModel>
  </diagram>
</mxfile>
